<mxfile host="Electron" agent="Mozilla/5.0 (Windows NT 10.0; Win64; x64) AppleWebKit/537.36 (KHTML, like Gecko) draw.io/28.2.5 Chrome/138.0.7204.251 Electron/37.6.1 Safari/537.36" version="28.2.5">
  <diagram name="Page-1" id="929967ad-93f9-6ef4-fab6-5d389245f69c">
    <mxGraphModel dx="3367.5" dy="1187" grid="1" gridSize="10" guides="1" tooltips="1" connect="1" arrows="1" fold="1" page="1" pageScale="1.5" pageWidth="1169" pageHeight="826" background="none" math="0" shadow="0">
      <root>
        <mxCell id="0" style=";html=1;" />
        <mxCell id="1" style=";html=1;" parent="0" />
        <mxCell id="1672d66443f91eb5-23" value="Модуль Провайдеры" style="text;strokeColor=none;fillColor=none;html=1;fontSize=24;fontStyle=1;verticalAlign=middle;align=center;" parent="1" vertex="1">
          <mxGeometry x="-240" y="20" width="1510" height="40" as="geometry" />
        </mxCell>
        <mxCell id="pF2w6Pb8Hnk9zaaPXWxI-1" value="Репозиторий провайдеров" style="shape=module;align=left;spacingLeft=20;align=center;verticalAlign=top;whiteSpace=wrap;html=1;" parent="1" vertex="1">
          <mxGeometry x="630" y="240" width="410" height="200" as="geometry" />
        </mxCell>
        <mxCell id="pF2w6Pb8Hnk9zaaPXWxI-2" value="Личный кабинет" style="shape=module;align=left;spacingLeft=20;align=center;verticalAlign=top;whiteSpace=wrap;html=1;" parent="1" vertex="1">
          <mxGeometry x="120" y="240" width="400" height="200" as="geometry" />
        </mxCell>
        <mxCell id="pF2w6Pb8Hnk9zaaPXWxI-4" value="Модуль отчётности" style="shape=module;align=left;spacingLeft=20;align=center;verticalAlign=top;whiteSpace=wrap;html=1;" parent="1" vertex="1">
          <mxGeometry x="120" y="640" width="400" height="200" as="geometry" />
        </mxCell>
        <mxCell id="pF2w6Pb8Hnk9zaaPXWxI-5" value="Процессинг провайдеров" style="shape=module;align=left;spacingLeft=20;align=center;verticalAlign=top;whiteSpace=wrap;html=1;" parent="1" vertex="1">
          <mxGeometry x="630" y="640" width="410" height="200" as="geometry" />
        </mxCell>
        <mxCell id="pF2w6Pb8Hnk9zaaPXWxI-7" value="" style="rounded=0;orthogonalLoop=1;jettySize=auto;html=1;endArrow=halfCircle;endFill=0;endSize=6;strokeWidth=1;sketch=0;exitX=0.512;exitY=0.001;exitDx=0;exitDy=0;exitPerimeter=0;" parent="1" source="pF2w6Pb8Hnk9zaaPXWxI-5" edge="1">
          <mxGeometry relative="1" as="geometry">
            <mxPoint x="1160" y="520" as="sourcePoint" />
            <Array as="points">
              <mxPoint x="840" y="600" />
              <mxPoint x="840" y="560" />
            </Array>
            <mxPoint x="840" y="520" as="targetPoint" />
          </mxGeometry>
        </mxCell>
        <mxCell id="pF2w6Pb8Hnk9zaaPXWxI-8" value="" style="rounded=0;orthogonalLoop=1;jettySize=auto;html=1;endArrow=oval;endFill=0;sketch=0;sourcePerimeterSpacing=0;targetPerimeterSpacing=0;endSize=10;exitX=0.513;exitY=1.003;exitDx=0;exitDy=0;exitPerimeter=0;" parent="1" source="pF2w6Pb8Hnk9zaaPXWxI-1" edge="1">
          <mxGeometry relative="1" as="geometry">
            <mxPoint x="1040" y="340" as="sourcePoint" />
            <mxPoint x="840" y="520" as="targetPoint" />
          </mxGeometry>
        </mxCell>
        <mxCell id="pF2w6Pb8Hnk9zaaPXWxI-9" value="" style="ellipse;whiteSpace=wrap;html=1;align=center;aspect=fixed;fillColor=none;strokeColor=none;resizable=0;perimeter=centerPerimeter;rotatable=0;allowArrows=0;points=[];outlineConnect=1;" parent="1" vertex="1">
          <mxGeometry x="830" y="500" width="10" height="10" as="geometry" />
        </mxCell>
        <mxCell id="pF2w6Pb8Hnk9zaaPXWxI-10" value="" style="rounded=0;orthogonalLoop=1;jettySize=auto;html=1;endArrow=halfCircle;endFill=0;endSize=6;strokeWidth=1;sketch=0;exitX=0.828;exitY=0.999;exitDx=0;exitDy=0;exitPerimeter=0;" parent="1" edge="1">
          <mxGeometry relative="1" as="geometry">
            <mxPoint x="840.0000000000005" y="840" as="sourcePoint" />
            <mxPoint x="840.52" y="920.2" as="targetPoint" />
            <Array as="points" />
          </mxGeometry>
        </mxCell>
        <mxCell id="hBwkwiyjn2QzTRJOSQXG-1" value="API финансового учёта" style="edgeLabel;html=1;align=center;verticalAlign=middle;resizable=0;points=[];" parent="pF2w6Pb8Hnk9zaaPXWxI-10" vertex="1" connectable="0">
          <mxGeometry x="0.2" y="-2" relative="1" as="geometry">
            <mxPoint as="offset" />
          </mxGeometry>
        </mxCell>
        <mxCell id="pF2w6Pb8Hnk9zaaPXWxI-12" value="" style="ellipse;whiteSpace=wrap;html=1;align=center;aspect=fixed;fillColor=none;strokeColor=none;resizable=0;perimeter=centerPerimeter;rotatable=0;allowArrows=0;points=[];outlineConnect=1;" parent="1" vertex="1">
          <mxGeometry x="1100" y="610" width="10" height="10" as="geometry" />
        </mxCell>
        <mxCell id="pF2w6Pb8Hnk9zaaPXWxI-13" value="" style="rounded=0;orthogonalLoop=1;jettySize=auto;html=1;endArrow=halfCircle;endFill=0;endSize=6;strokeWidth=1;sketch=0;exitX=0.997;exitY=0.398;exitDx=0;exitDy=0;exitPerimeter=0;" parent="1" source="pF2w6Pb8Hnk9zaaPXWxI-2" edge="1">
          <mxGeometry relative="1" as="geometry">
            <mxPoint x="610" y="350" as="sourcePoint" />
            <mxPoint x="590" y="320" as="targetPoint" />
          </mxGeometry>
        </mxCell>
        <mxCell id="pF2w6Pb8Hnk9zaaPXWxI-14" value="" style="rounded=0;orthogonalLoop=1;jettySize=auto;html=1;endArrow=oval;endFill=0;sketch=0;sourcePerimeterSpacing=0;targetPerimeterSpacing=0;endSize=10;exitX=0.023;exitY=0.399;exitDx=0;exitDy=0;exitPerimeter=0;" parent="1" source="pF2w6Pb8Hnk9zaaPXWxI-1" edge="1">
          <mxGeometry relative="1" as="geometry">
            <mxPoint x="570" y="350" as="sourcePoint" />
            <mxPoint x="590" y="320" as="targetPoint" />
          </mxGeometry>
        </mxCell>
        <mxCell id="pF2w6Pb8Hnk9zaaPXWxI-15" value="" style="ellipse;whiteSpace=wrap;html=1;align=center;aspect=fixed;fillColor=none;strokeColor=none;resizable=0;perimeter=centerPerimeter;rotatable=0;allowArrows=0;points=[];outlineConnect=1;" parent="1" vertex="1">
          <mxGeometry x="585" y="345" width="10" height="10" as="geometry" />
        </mxCell>
        <mxCell id="pF2w6Pb8Hnk9zaaPXWxI-18" value="" style="ellipse;whiteSpace=wrap;html=1;align=center;aspect=fixed;fillColor=none;strokeColor=none;resizable=0;perimeter=centerPerimeter;rotatable=0;allowArrows=0;points=[];outlineConnect=1;" parent="1" vertex="1">
          <mxGeometry x="595" y="590" width="10" height="10" as="geometry" />
        </mxCell>
        <mxCell id="pF2w6Pb8Hnk9zaaPXWxI-21" value="" style="ellipse;whiteSpace=wrap;html=1;align=center;aspect=fixed;fillColor=none;strokeColor=none;resizable=0;perimeter=centerPerimeter;rotatable=0;allowArrows=0;points=[];outlineConnect=1;" parent="1" vertex="1">
          <mxGeometry x="540" y="710" width="10" height="10" as="geometry" />
        </mxCell>
        <mxCell id="pF2w6Pb8Hnk9zaaPXWxI-24" value="" style="ellipse;whiteSpace=wrap;html=1;align=center;aspect=fixed;fillColor=none;strokeColor=none;resizable=0;perimeter=centerPerimeter;rotatable=0;allowArrows=0;points=[];outlineConnect=1;" parent="1" vertex="1">
          <mxGeometry x="560" y="710" width="10" height="10" as="geometry" />
        </mxCell>
        <mxCell id="pF2w6Pb8Hnk9zaaPXWxI-25" value="" style="rounded=0;orthogonalLoop=1;jettySize=auto;html=1;endArrow=halfCircle;endFill=0;endSize=6;strokeWidth=1;sketch=0;exitX=0.999;exitY=0.301;exitDx=0;exitDy=0;exitPerimeter=0;" parent="1" source="pF2w6Pb8Hnk9zaaPXWxI-4" edge="1">
          <mxGeometry relative="1" as="geometry">
            <mxPoint x="600" y="875" as="sourcePoint" />
            <mxPoint x="590" y="320" as="targetPoint" />
            <Array as="points">
              <mxPoint x="590" y="700" />
            </Array>
          </mxGeometry>
        </mxCell>
        <mxCell id="pF2w6Pb8Hnk9zaaPXWxI-27" value="" style="ellipse;whiteSpace=wrap;html=1;align=center;aspect=fixed;fillColor=none;strokeColor=none;resizable=0;perimeter=centerPerimeter;rotatable=0;allowArrows=0;points=[];outlineConnect=1;" parent="1" vertex="1">
          <mxGeometry x="575" y="870" width="10" height="10" as="geometry" />
        </mxCell>
        <mxCell id="pF2w6Pb8Hnk9zaaPXWxI-29" value="" style="rounded=0;orthogonalLoop=1;jettySize=auto;html=1;endArrow=halfCircle;endFill=0;endSize=6;strokeWidth=1;sketch=0;exitX=0.806;exitY=0.004;exitDx=0;exitDy=0;exitPerimeter=0;" parent="1" source="pF2w6Pb8Hnk9zaaPXWxI-1" edge="1">
          <mxGeometry relative="1" as="geometry">
            <mxPoint x="1350" y="695" as="sourcePoint" />
            <mxPoint x="960" y="120" as="targetPoint" />
          </mxGeometry>
        </mxCell>
        <mxCell id="pF2w6Pb8Hnk9zaaPXWxI-32" value="API безопасности" style="edgeLabel;html=1;align=center;verticalAlign=middle;resizable=0;points=[];" parent="pF2w6Pb8Hnk9zaaPXWxI-29" vertex="1" connectable="0">
          <mxGeometry x="-0.001" y="2" relative="1" as="geometry">
            <mxPoint as="offset" />
          </mxGeometry>
        </mxCell>
        <mxCell id="pF2w6Pb8Hnk9zaaPXWxI-31" value="" style="ellipse;whiteSpace=wrap;html=1;align=center;aspect=fixed;fillColor=none;strokeColor=none;resizable=0;perimeter=centerPerimeter;rotatable=0;allowArrows=0;points=[];outlineConnect=1;" parent="1" vertex="1">
          <mxGeometry x="1225" y="690" width="10" height="10" as="geometry" />
        </mxCell>
        <mxCell id="pF2w6Pb8Hnk9zaaPXWxI-35" value="" style="rounded=0;orthogonalLoop=1;jettySize=auto;html=1;endArrow=halfCircle;endFill=0;endSize=6;strokeWidth=1;sketch=0;exitX=0.799;exitY=0.002;exitDx=0;exitDy=0;exitPerimeter=0;" parent="1" source="pF2w6Pb8Hnk9zaaPXWxI-2" edge="1">
          <mxGeometry relative="1" as="geometry">
            <mxPoint x="1010" y="281" as="sourcePoint" />
            <mxPoint x="440" y="120" as="targetPoint" />
          </mxGeometry>
        </mxCell>
        <mxCell id="pF2w6Pb8Hnk9zaaPXWxI-36" value="API безопасности" style="edgeLabel;html=1;align=center;verticalAlign=middle;resizable=0;points=[];" parent="pF2w6Pb8Hnk9zaaPXWxI-35" vertex="1" connectable="0">
          <mxGeometry x="-0.001" y="2" relative="1" as="geometry">
            <mxPoint as="offset" />
          </mxGeometry>
        </mxCell>
        <mxCell id="pF2w6Pb8Hnk9zaaPXWxI-37" value="" style="rounded=0;orthogonalLoop=1;jettySize=auto;html=1;endArrow=halfCircle;endFill=0;endSize=6;strokeWidth=1;sketch=0;exitX=0.799;exitY=0.002;exitDx=0;exitDy=0;exitPerimeter=0;" parent="1" source="pF2w6Pb8Hnk9zaaPXWxI-4" edge="1">
          <mxGeometry relative="1" as="geometry">
            <mxPoint x="460" y="621" as="sourcePoint" />
            <mxPoint x="440" y="520" as="targetPoint" />
          </mxGeometry>
        </mxCell>
        <mxCell id="pF2w6Pb8Hnk9zaaPXWxI-38" value="API безопасности" style="edgeLabel;html=1;align=center;verticalAlign=middle;resizable=0;points=[];" parent="pF2w6Pb8Hnk9zaaPXWxI-37" vertex="1" connectable="0">
          <mxGeometry x="-0.001" y="2" relative="1" as="geometry">
            <mxPoint as="offset" />
          </mxGeometry>
        </mxCell>
        <mxCell id="pF2w6Pb8Hnk9zaaPXWxI-39" value="" style="rounded=0;orthogonalLoop=1;jettySize=auto;html=1;endArrow=halfCircle;endFill=0;endSize=6;strokeWidth=1;sketch=0;exitX=0.829;exitY=-0.001;exitDx=0;exitDy=0;exitPerimeter=0;" parent="1" source="pF2w6Pb8Hnk9zaaPXWxI-5" edge="1">
          <mxGeometry relative="1" as="geometry">
            <mxPoint x="1440" y="420" as="sourcePoint" />
            <mxPoint x="970" y="520" as="targetPoint" />
          </mxGeometry>
        </mxCell>
        <mxCell id="pF2w6Pb8Hnk9zaaPXWxI-40" value="API безопасности" style="edgeLabel;html=1;align=center;verticalAlign=middle;resizable=0;points=[];" parent="pF2w6Pb8Hnk9zaaPXWxI-39" vertex="1" connectable="0">
          <mxGeometry x="-0.001" y="2" relative="1" as="geometry">
            <mxPoint as="offset" />
          </mxGeometry>
        </mxCell>
        <mxCell id="pF2w6Pb8Hnk9zaaPXWxI-49" value="" style="rounded=0;orthogonalLoop=1;jettySize=auto;html=1;endArrow=oval;endFill=0;sketch=0;sourcePerimeterSpacing=0;targetPerimeterSpacing=0;endSize=10;exitX=0;exitY=0.5;exitDx=10;exitDy=0;exitPerimeter=0;" parent="1" source="pF2w6Pb8Hnk9zaaPXWxI-2" target="pF2w6Pb8Hnk9zaaPXWxI-50" edge="1">
          <mxGeometry relative="1" as="geometry">
            <mxPoint x="90" y="505" as="sourcePoint" />
          </mxGeometry>
        </mxCell>
        <mxCell id="pF2w6Pb8Hnk9zaaPXWxI-51" value="API ЛК мерчанта" style="edgeLabel;html=1;align=center;verticalAlign=middle;resizable=0;points=[];" parent="pF2w6Pb8Hnk9zaaPXWxI-49" vertex="1" connectable="0">
          <mxGeometry x="0.0164" relative="1" as="geometry">
            <mxPoint as="offset" />
          </mxGeometry>
        </mxCell>
        <mxCell id="pF2w6Pb8Hnk9zaaPXWxI-50" value="" style="ellipse;whiteSpace=wrap;html=1;align=center;aspect=fixed;fillColor=none;strokeColor=none;resizable=0;perimeter=centerPerimeter;rotatable=0;allowArrows=0;points=[];outlineConnect=1;" parent="1" vertex="1">
          <mxGeometry x="10" y="335" width="10" height="10" as="geometry" />
        </mxCell>
        <mxCell id="pF2w6Pb8Hnk9zaaPXWxI-52" value="Сайт провайдера" style="shape=module;align=left;spacingLeft=20;align=center;verticalAlign=top;whiteSpace=wrap;html=1;" parent="1" vertex="1">
          <mxGeometry x="-270" y="287.5" width="190" height="80" as="geometry" />
        </mxCell>
        <mxCell id="pF2w6Pb8Hnk9zaaPXWxI-53" value="Мобильное приложение для провайдера" style="shape=module;align=left;spacingLeft=20;align=center;verticalAlign=top;whiteSpace=wrap;html=1;" parent="1" vertex="1">
          <mxGeometry x="-250" y="312.5" width="190" height="80" as="geometry" />
        </mxCell>
        <mxCell id="pF2w6Pb8Hnk9zaaPXWxI-54" value="" style="rounded=0;orthogonalLoop=1;jettySize=auto;html=1;endArrow=halfCircle;endFill=0;endSize=6;strokeWidth=1;sketch=0;exitX=0.996;exitY=0.349;exitDx=0;exitDy=0;exitPerimeter=0;" parent="1" source="pF2w6Pb8Hnk9zaaPXWxI-53" target="pF2w6Pb8Hnk9zaaPXWxI-56" edge="1">
          <mxGeometry relative="1" as="geometry">
            <mxPoint x="-20" y="505" as="sourcePoint" />
          </mxGeometry>
        </mxCell>
        <mxCell id="pF2w6Pb8Hnk9zaaPXWxI-56" value="" style="ellipse;whiteSpace=wrap;html=1;align=center;aspect=fixed;fillColor=none;strokeColor=none;resizable=0;perimeter=centerPerimeter;rotatable=0;allowArrows=0;points=[];outlineConnect=1;" parent="1" vertex="1">
          <mxGeometry x="10" y="335" width="10" height="10" as="geometry" />
        </mxCell>
        <mxCell id="pF2w6Pb8Hnk9zaaPXWxI-59" value="" style="rounded=0;orthogonalLoop=1;jettySize=auto;html=1;endArrow=oval;endFill=0;sketch=0;sourcePerimeterSpacing=0;targetPerimeterSpacing=0;endSize=10;exitX=0.024;exitY=0.598;exitDx=0;exitDy=0;exitPerimeter=0;" parent="1" source="pF2w6Pb8Hnk9zaaPXWxI-4" edge="1">
          <mxGeometry relative="1" as="geometry">
            <mxPoint x="171" y="460" as="sourcePoint" />
            <mxPoint x="20" y="760" as="targetPoint" />
          </mxGeometry>
        </mxCell>
        <mxCell id="pF2w6Pb8Hnk9zaaPXWxI-60" value="API отчётов" style="edgeLabel;html=1;align=center;verticalAlign=middle;resizable=0;points=[];" parent="pF2w6Pb8Hnk9zaaPXWxI-59" vertex="1" connectable="0">
          <mxGeometry x="0.0164" relative="1" as="geometry">
            <mxPoint as="offset" />
          </mxGeometry>
        </mxCell>
        <mxCell id="pF2w6Pb8Hnk9zaaPXWxI-61" value="" style="rounded=0;orthogonalLoop=1;jettySize=auto;html=1;endArrow=halfCircle;endFill=0;endSize=6;strokeWidth=1;sketch=0;exitX=0.988;exitY=0.678;exitDx=0;exitDy=0;exitPerimeter=0;" parent="1" source="pF2w6Pb8Hnk9zaaPXWxI-53" edge="1">
          <mxGeometry relative="1" as="geometry">
            <mxPoint x="-20" y="460" as="sourcePoint" />
            <mxPoint x="20" y="760" as="targetPoint" />
            <Array as="points">
              <mxPoint x="-20" y="367" />
              <mxPoint x="-20" y="760" />
            </Array>
          </mxGeometry>
        </mxCell>
        <mxCell id="pF2w6Pb8Hnk9zaaPXWxI-64" value="" style="rounded=0;orthogonalLoop=1;jettySize=auto;html=1;endArrow=oval;endFill=0;sketch=0;sourcePerimeterSpacing=0;targetPerimeterSpacing=0;endSize=10;exitX=1;exitY=0.5;exitDx=0;exitDy=0;" parent="1" source="pF2w6Pb8Hnk9zaaPXWxI-5" target="pF2w6Pb8Hnk9zaaPXWxI-65" edge="1">
          <mxGeometry relative="1" as="geometry">
            <mxPoint x="1660" y="545" as="sourcePoint" />
          </mxGeometry>
        </mxCell>
        <mxCell id="pF2w6Pb8Hnk9zaaPXWxI-67" value="API процессинга&lt;div&gt;&amp;nbsp;провайдеров&lt;/div&gt;" style="edgeLabel;html=1;align=center;verticalAlign=middle;resizable=0;points=[];" parent="pF2w6Pb8Hnk9zaaPXWxI-64" vertex="1" connectable="0">
          <mxGeometry x="0.3409" relative="1" as="geometry">
            <mxPoint x="-21" as="offset" />
          </mxGeometry>
        </mxCell>
        <mxCell id="pF2w6Pb8Hnk9zaaPXWxI-65" value="" style="ellipse;whiteSpace=wrap;html=1;align=center;aspect=fixed;fillColor=none;strokeColor=none;resizable=0;perimeter=centerPerimeter;rotatable=0;allowArrows=0;points=[];outlineConnect=1;" parent="1" vertex="1">
          <mxGeometry x="1150" y="735" width="10" height="10" as="geometry" />
        </mxCell>
        <mxCell id="hBwkwiyjn2QzTRJOSQXG-2" value="" style="rounded=0;orthogonalLoop=1;jettySize=auto;html=1;endArrow=halfCircle;endFill=0;endSize=6;strokeWidth=1;sketch=0;exitX=0.5;exitY=1;exitDx=0;exitDy=0;" parent="1" source="pF2w6Pb8Hnk9zaaPXWxI-4" edge="1">
          <mxGeometry relative="1" as="geometry">
            <mxPoint x="319.5" y="840" as="sourcePoint" />
            <mxPoint x="320.5" y="920" as="targetPoint" />
            <Array as="points" />
          </mxGeometry>
        </mxCell>
        <mxCell id="hBwkwiyjn2QzTRJOSQXG-3" value="API финансового учёта" style="edgeLabel;html=1;align=center;verticalAlign=middle;resizable=0;points=[];" parent="hBwkwiyjn2QzTRJOSQXG-2" vertex="1" connectable="0">
          <mxGeometry x="0.2" y="-2" relative="1" as="geometry">
            <mxPoint as="offset" />
          </mxGeometry>
        </mxCell>
        <mxCell id="hBwkwiyjn2QzTRJOSQXG-4" value="" style="rounded=0;orthogonalLoop=1;jettySize=auto;html=1;endArrow=halfCircle;endFill=0;endSize=6;strokeWidth=1;sketch=0;exitX=0.5;exitY=1;exitDx=0;exitDy=0;" parent="1" edge="1">
          <mxGeometry relative="1" as="geometry">
            <mxPoint x="319.75" y="440" as="sourcePoint" />
            <mxPoint x="320.25" y="520" as="targetPoint" />
            <Array as="points" />
          </mxGeometry>
        </mxCell>
        <mxCell id="hBwkwiyjn2QzTRJOSQXG-5" value="API финансового учёта" style="edgeLabel;html=1;align=center;verticalAlign=middle;resizable=0;points=[];" parent="hBwkwiyjn2QzTRJOSQXG-4" vertex="1" connectable="0">
          <mxGeometry x="0.2" y="-2" relative="1" as="geometry">
            <mxPoint as="offset" />
          </mxGeometry>
        </mxCell>
        <mxCell id="hBwkwiyjn2QzTRJOSQXG-6" value="" style="rounded=0;orthogonalLoop=1;jettySize=auto;html=1;endArrow=halfCircle;endFill=0;endSize=6;strokeWidth=1;sketch=0;exitX=0.5;exitY=1;exitDx=0;exitDy=0;" parent="1" edge="1">
          <mxGeometry relative="1" as="geometry">
            <mxPoint x="440" y="840" as="sourcePoint" />
            <mxPoint x="440.5" y="920" as="targetPoint" />
            <Array as="points" />
          </mxGeometry>
        </mxCell>
        <mxCell id="hBwkwiyjn2QzTRJOSQXG-7" value="API фискализации" style="edgeLabel;html=1;align=center;verticalAlign=middle;resizable=0;points=[];" parent="hBwkwiyjn2QzTRJOSQXG-6" vertex="1" connectable="0">
          <mxGeometry x="0.2" y="-2" relative="1" as="geometry">
            <mxPoint as="offset" />
          </mxGeometry>
        </mxCell>
        <mxCell id="hBwkwiyjn2QzTRJOSQXG-8" value="" style="endArrow=none;dashed=1;html=1;rounded=0;exitX=0.3;exitY=0;exitDx=0;exitDy=0;exitPerimeter=0;startArrow=classic;startFill=1;" parent="1" source="pF2w6Pb8Hnk9zaaPXWxI-4" edge="1">
          <mxGeometry width="50" height="50" relative="1" as="geometry">
            <mxPoint x="190" y="490" as="sourcePoint" />
            <mxPoint x="240" y="440" as="targetPoint" />
          </mxGeometry>
        </mxCell>
        <mxCell id="HK9aNHRzZrLkhIn8infu-2" value="" style="rounded=0;whiteSpace=wrap;html=1;" parent="1" vertex="1">
          <mxGeometry x="640" y="980" width="120" height="60" as="geometry" />
        </mxCell>
        <mxCell id="HK9aNHRzZrLkhIn8infu-4" value="" style="rounded=0;whiteSpace=wrap;html=1;" parent="1" vertex="1">
          <mxGeometry x="650" y="990" width="120" height="60" as="geometry" />
        </mxCell>
        <mxCell id="HK9aNHRzZrLkhIn8infu-3" value="API провайдеров" style="rounded=0;whiteSpace=wrap;html=1;" parent="1" vertex="1">
          <mxGeometry x="660" y="1000" width="120" height="60" as="geometry" />
        </mxCell>
        <mxCell id="HK9aNHRzZrLkhIn8infu-5" value="" style="rounded=0;orthogonalLoop=1;jettySize=auto;html=1;endArrow=halfCircle;endFill=0;endSize=6;strokeWidth=1;sketch=0;exitX=0.17;exitY=0.995;exitDx=0;exitDy=0;exitPerimeter=0;" parent="1" source="pF2w6Pb8Hnk9zaaPXWxI-5" edge="1">
          <mxGeometry relative="1" as="geometry">
            <mxPoint x="550" y="380" as="sourcePoint" />
            <mxPoint x="700" y="910" as="targetPoint" />
          </mxGeometry>
        </mxCell>
        <mxCell id="HK9aNHRzZrLkhIn8infu-6" value="" style="rounded=0;orthogonalLoop=1;jettySize=auto;html=1;endArrow=oval;endFill=0;sketch=0;sourcePerimeterSpacing=0;targetPerimeterSpacing=0;endSize=10;exitX=0.5;exitY=0;exitDx=0;exitDy=0;" parent="1" source="HK9aNHRzZrLkhIn8infu-2" edge="1">
          <mxGeometry relative="1" as="geometry">
            <mxPoint x="670" y="380" as="sourcePoint" />
            <mxPoint x="700" y="910" as="targetPoint" />
          </mxGeometry>
        </mxCell>
        <mxCell id="HK9aNHRzZrLkhIn8infu-7" value="Модуль" style="swimlane;whiteSpace=wrap;html=1;" parent="1" vertex="1">
          <mxGeometry x="70" y="80" width="1110" height="870" as="geometry" />
        </mxCell>
      </root>
    </mxGraphModel>
  </diagram>
</mxfile>
